<svg width="0" height="0" class="hidden">
  <symbol xmlns="http://www.w3.org/2000/svg" fill="none" viewBox="0 0 24 24" id="moon">
    <path fill="currentColor" d="M12 22c5.523 0 10-4.477 10-10 0-.463-.694-.54-.933-.143a6.5 6.5 0 1 1-8.924-8.924C12.54 2.693 12.463 2 12 2 6.477 2 2 6.477 2 12s4.477 10 10 10"></path>
  </symbol>
  <symbol xmlns="http://www.w3.org/2000/svg" fill="none" viewBox="0 0 24 24" id="sun">
    <g fill="currentColor">
      <path d="M18 12a6 6 0 1 1-12 0 6 6 0 0 1 12 0"></path>
      <path fill-rule="evenodd" d="M12 1.25a.75.75 0 0 1 .75.75v1a.75.75 0 0 1-1.5 0V2a.75.75 0 0 1 .75-.75M4.399 4.399a.75.75 0 0 1 1.06 0l.393.392a.75.75 0 0 1-1.06 1.061l-.393-.393a.75.75 0 0 1 0-1.06m15.202 0a.75.75 0 0 1 0 1.06l-.393.393a.75.75 0 0 1-1.06-1.06l.393-.393a.75.75 0 0 1 1.06 0M1.25 12a.75.75 0 0 1 .75-.75h1a.75.75 0 0 1 0 1.5H2a.75.75 0 0 1-.75-.75m19 0a.75.75 0 0 1 .75-.75h1a.75.75 0 0 1 0 1.5h-1a.75.75 0 0 1-.75-.75m-2.102 6.148a.75.75 0 0 1 1.06 0l.393.393a.75.75 0 1 1-1.06 1.06l-.393-.393a.75.75 0 0 1 0-1.06m-12.296 0a.75.75 0 0 1 0 1.06l-.393.393a.75.75 0 1 1-1.06-1.06l.392-.393a.75.75 0 0 1 1.061 0M12 20.25a.75.75 0 0 1 .75.75v1a.75.75 0 0 1-1.5 0v-1a.75.75 0 0 1 .75-.75" clip-rule="evenodd"></path>
    </g>
  </symbol>
  <symbol xmlns="http://www.w3.org/2000/svg" viewBox="0 0 16 16" fill="none" id="chevron">
    <path fill="currentColor" d="m3.825 9 5.6 5.6L8 16 0 8l8-8 1.425 1.4-5.6 5.6H16v2z"/>
  </symbol>

  <symbol xmlns="http://www.w3.org/2000/svg" viewBox="0 0 48 48" fill="none" id="quote">
    <path fill="currentColor" d="M2.55 18 6 12q-2.475 0-4.237-1.762T0 6t1.763-4.237T6 0t4.238 1.763T12 6q0 .862-.206 1.594A5.6 5.6 0 0 1 11.175 9L6 18zm13.5 0 3.45-6q-2.474 0-4.238-1.762Q13.502 8.475 13.5 6q0-2.475 1.762-4.237T19.5 0t4.238 1.763T25.5 6q0 .862-.206 1.594A5.6 5.6 0 0 1 24.675 9L19.5 18z"/>
  </symbol>
</svg>